<svg xmlns="http://www.w3.org/2000/svg" viewBox="0 0 256 256">
  <rect width="256" height="256" fill="#E8DCC8"/>
  <path d="M128 60c-8 0-15 3-20 8l-15 15c-3 3-3 8 0 11l8 8-25 25c-2 2-3 5-3 8v35c0 6 5 11 11 11h35c3 0 6-1 8-3l25-25 8 8c3 3 8 3 11 0l15-15c5-5 8-12 8-20 0-12-6-23-15-30l-20-20c-7-9-18-16-31-16z" fill="#8FA888"/>
  <ellipse cx="115" cy="95" rx="4" ry="4" fill="#5A6B54"/>
  <path d="M165 125l-12 12-8-8 12-12z" fill="#9FB599" opacity="0.6"/>
  <path d="M180 145c15 8 25 15 35 30 3 5 2 11-3 14-4 3-10 2-13-2-10-15-20-25-30-35z" fill="#8FA888"/>
</svg>